# xmcd
#
# Track frame offsets:
#	151
#	23409
#	37007
#	50894
#	74709
#	86894
#	100965
#	115900
#	135131
#	154068
#
# Disc length: 2246
#
# Revision: 2
# Processed by: cddbd v1.5.1PL0 Copyright (c) Steve Scherf et al.
# Submitted via: EasyCDDAExtractor 7.0.6.1
# Normalized: r1:DSETVAR1
#
DISCID=8608c40a
DTITLE=Various Artist - Cuba Social Club - Los Van Van
DYEAR=1900
DGENRE=Blues
TTITLE0=Los Van Van - Sandunguera
TTITLE1=Beny Moré - Como arrullo de palmas
TTITLE2=Chico O'farril - Malagueña
TTITLE3=Los Van Van - Hoy se cumplen seis semanas
TTITLE4=Bienvenido Granda - Egoismo
TTITLE5=Celia Cruz - Lagrimas Negras
TTITLE6=Antonio Maria Romeu - El cadete constitucional
TTITLE7=Guaracheros de Oriente - La bayamesa
TTITLE8=Los Van Van - Aquí se enciende la candela
TTITLE9=Enrique Jorrín - La engañadora
EXTD=
EXTT0=
EXTT1=
EXTT2=
EXTT3=
EXTT4=
EXTT5=
EXTT6=
EXTT7=
EXTT8=
EXTT9=
PLAYORDER=
